<svg id="svg" version="1.1" xmlns="http://www.w3.org/2000/svg" xmlns:xlink="http://www.w3.org/1999/xlink" width="400" height="400" viewBox="0, 0, 400,400"><g id="svgg"><path id="path0" d="M3.692 40.734 L 3.692 78.390 9.923 78.594 C 92.159 81.288,162.456 110.041,221.660 165.199 C 283.152 222.489,321.787 309.294,321.849 390.308 C 321.851 392.846,321.939 395.442,322.044 396.077 L 322.234 397.231 360.040 397.231 L 397.846 397.231 397.842 393.462 C 397.697 256.180,320.694 124.685,199.820 55.308 C 141.849 22.035,73.207 3.079,10.692 3.077 L 3.692 3.077 3.692 40.734 M3.692 174.721 L 3.692 212.615 7.769 212.617 C 39.851 212.626,75.958 223.823,104.462 242.601 C 156.694 277.012,187.321 333.564,187.996 396.846 C 187.999 397.152,195.814 397.231,226.033 397.231 L 264.066 397.231 263.865 391.769 C 263.084 370.515,261.083 354.826,256.909 337.231 C 229.781 222.874,128.062 139.953,11.308 137.018 L 3.692 136.826 3.692 174.721 M50.154 292.352 C 17.465 295.729,-4.213 329.699,6.290 361.087 C 17.336 394.098,58.226 407.302,86.514 386.992 C 130.254 355.587,103.829 286.807,50.154 292.352 " stroke="none" fill="#4c5cac" fill-rule="evenodd"></path><path id="path1" d="" stroke="none" fill="#505cac" fill-rule="evenodd"></path><path id="path2" d="" stroke="none" fill="#505cac" fill-rule="evenodd"></path><path id="path3" d="" stroke="none" fill="#505cac" fill-rule="evenodd"></path><path id="path4" d="" stroke="none" fill="#505cac" fill-rule="evenodd"></path></g></svg>