<?xml version="1.0" standalone="no"?>
<!DOCTYPE svg PUBLIC "-//W3C//DTD SVG 20010904//EN"
 "http://www.w3.org/TR/2001/REC-SVG-20010904/DTD/svg10.dtd">
<svg version="1.0" xmlns="http://www.w3.org/2000/svg"
 width="522.000000pt" height="522.000000pt" viewBox="0 0 522.000000 522.000000"
 preserveAspectRatio="xMidYMid meet">
<metadata>
Created by potrace 1.16, written by Peter Selinger 2001-2019
</metadata>
<g transform="translate(0.000000,522.000000) scale(0.100000,-0.100000)"
fill="#000000" stroke="none">
<path d="M4475 5207 c-81 -27 -129 -61 -238 -167 l-112 -109 55 -55 c30 -31
59 -56 65 -56 6 0 53 43 105 96 131 132 188 158 292 134 49 -12 65 -24 212
-169 109 -108 165 -170 179 -200 24 -55 25 -136 2 -182 -9 -19 -65 -82 -123
-141 l-106 -108 54 -55 c30 -30 59 -55 65 -55 22 0 223 215 248 266 38 75 53
170 39 245 -22 119 -50 160 -225 336 -139 139 -172 166 -232 194 -59 28 -83
34 -155 36 -52 2 -101 -2 -125 -10z"/>
<path d="M2283 3088 l-1652 -1653 -316 -710 c-173 -390 -314 -713 -313 -717 2
-4 323 134 713 307 l710 316 1683 1682 c925 925 1682 1687 1682 1692 0 6 -76
87 -170 180 l-170 170 -55 -55 c-30 -30 -55 -59 -55 -65 0 -5 49 -59 110 -120
l110 -110 -1593 -1593 -1592 -1592 -110 110 -110 110 1475 1475 1475 1475 -60
60 -60 60 -1475 -1475 -1475 -1475 -55 55 -55 55 -60 -60 -60 -60 213 -213
212 -212 -263 -117 -262 -116 -109 107 -108 108 137 309 136 309 1652 1652
1652 1653 -55 55 c-30 30 -59 55 -65 55 -5 0 -753 -744 -1662 -1652z m-1799
-2607 c32 -32 54 -61 49 -64 -38 -23 -214 -94 -210 -84 31 77 92 207 97 207 3
0 32 -26 64 -59z"/>
</g>
</svg>
